<?xml version="1.0" standalone="no"?>
<!DOCTYPE svg PUBLIC "-//W3C//DTD SVG 20010904//EN"
 "http://www.w3.org/TR/2001/REC-SVG-20010904/DTD/svg10.dtd">
<svg version="1.0" xmlns="http://www.w3.org/2000/svg"
 width="265.000000pt" height="265.000000pt" viewBox="0 0 265.000000 265.000000"
 preserveAspectRatio="xMidYMid meet">
<metadata>
Created by potrace 1.11, written by Peter Selinger 2001-2013
</metadata>
<g transform="translate(0.000000,265.000000) scale(0.100000,-0.100000)"
fill="#000000" stroke="none">
<path d="M555 2494 c-33 -36 -40 -59 -82 -304 -49 -283 -51 -450 -10 -639 15
-68 27 -128 27 -134 0 -6 -14 8 -31 31 -17 23 -33 42 -36 42 -3 0 -3 -28 0
-62 7 -73 35 -162 82 -265 34 -74 34 -85 -1 -58 -30 23 -34 18 -18 -27 38
-108 102 -184 250 -299 171 -132 198 -172 238 -353 28 -123 42 -151 96 -200
63 -57 121 -78 226 -84 106 -5 173 10 246 57 69 44 96 93 130 233 43 182 67
218 218 332 121 91 207 182 245 260 45 88 45 102 5 81 -16 -9 -30 -14 -30 -12
0 2 16 38 35 79 49 108 101 318 78 318 -4 0 -21 -19 -37 -41 -15 -22 -29 -39
-31 -37 -2 2 8 55 22 118 17 80 26 159 30 260 5 129 2 166 -26 340 -42 257
-56 316 -86 357 -22 28 -32 33 -65 33 -50 0 -90 -35 -203 -173 -138 -171 -245
-349 -335 -557 -11 -25 -11 -25 -11 6 -1 45 19 97 78 200 28 50 51 95 51 102
0 7 -10 12 -23 12 -36 0 -39 10 -11 43 14 16 23 32 20 35 -3 2 -39 -12 -81
-31 -56 -27 -75 -32 -75 -22 0 25 -19 17 -70 -31 l-49 -46 -49 46 c-53 50 -62
54 -62 31 0 -20 3 -20 -81 20 -40 19 -75 33 -77 30 -2 -2 5 -16 17 -31 24 -31
20 -44 -15 -44 -13 0 -24 -3 -24 -7 0 -5 23 -48 51 -98 28 -49 55 -101 61
-115 14 -35 27 -110 19 -110 -4 0 -19 30 -35 68 -39 92 -98 201 -164 302 -69
106 -235 313 -277 346 -44 33 -98 33 -130 -2z m99 -302 c41 -106 63 -193 76
-298 10 -78 5 -184 -10 -184 -3 0 -19 28 -34 63 -26 58 -28 61 -39 39 -8 -17
-7 -39 2 -84 7 -33 10 -62 7 -65 -2 -3 -17 14 -33 38 l-28 43 -3 -47 c-2 -26
-7 -47 -12 -47 -14 0 -59 59 -68 88 -11 41 -7 250 6 312 7 30 27 106 44 168
36 130 32 132 92 -26z m1422 51 c67 -222 85 -442 43 -530 -12 -24 -30 -48 -40
-54 -17 -9 -19 -6 -19 38 l-1 48 -20 -25 c-12 -14 -27 -34 -35 -44 -21 -30
-24 -16 -9 48 10 42 11 65 3 85 -10 25 -11 25 -39 -36 -15 -35 -33 -63 -39
-63 -16 0 -12 166 6 260 15 81 109 360 121 360 1 0 14 -39 29 -87z m-1216
-1008 c27 -14 65 -39 84 -56 88 -77 176 -261 176 -368 0 -51 0 -51 -27 -45
-152 36 -268 178 -293 358 -10 68 -7 136 6 136 3 0 27 -11 54 -25z m987 -67
c-11 -195 -101 -331 -255 -388 -66 -25 -74 -18 -66 55 15 124 81 252 174 339
44 41 118 85 144 86 5 0 6 -40 3 -92z"/>
</g>
</svg>
